<?xml version="1.0" encoding="UTF-8"?>
<svg version="1.1" xmlns="http://www.w3.org/2000/svg" width="1047" height="1016">
<path d="M0 0 C345.51 0 691.02 0 1047 0 C1047 335.28 1047 670.56 1047 1016 C701.49 1016 355.98 1016 0 1016 C0 680.72 0 345.44 0 0 Z " fill="#000101" transform="translate(0,0)"/>
<path d="M0 0 C0.85311768 0.00343414 1.70623535 0.00686829 2.58520508 0.01040649 C48.41991002 0.22621388 104.935861 9.50886756 138.8125 43.25 C139.36035156 43.76691406 139.90820312 44.28382813 140.47265625 44.81640625 C142.87346015 47.38519643 144.8125 50.69343885 144.8125 54.25 C145.4725 54.25 146.1325 54.25 146.8125 54.25 C149.90674624 63.10912168 150.15036247 70.97755227 149.8125 80.25 C149.1525 80.25 148.4925 80.25 147.8125 80.25 C147.71453125 80.81847656 147.6165625 81.38695312 147.515625 81.97265625 C145.55623103 92.0905613 140.4534377 99.37767733 132.8125 106.25 C121.23473016 113.53753025 108.63827748 115.18901152 95.2890625 112.5546875 C86.91784721 109.87033105 79.78011244 105.36688318 72.34326172 100.7722168 C59.65933791 92.98162615 46.2839231 87.72111985 31.8125 84.25 C31.06387695 84.06236084 30.31525391 83.87472168 29.54394531 83.68139648 C21.03495377 81.8265552 12.49264324 81.91260893 3.82666016 81.93432617 C1.21343536 81.93746881 -1.39863451 81.91402012 -4.01171875 81.88867188 C-18.55906941 81.8328167 -32.3204604 83.64645708 -46.25 88 C-47.49740967 88.38406006 -47.49740967 88.38406006 -48.77001953 88.77587891 C-63.70509435 93.51250462 -79.08510973 100.1411815 -91.1875 110.25 C-91.84492188 110.77980469 -92.50234375 111.30960937 -93.1796875 111.85546875 C-103.21650227 120.28889195 -111.25553276 131.07291769 -112.48046875 144.44921875 C-112.86898928 154.1622321 -111.03950741 160.56512612 -104.875 168.0625 C-98.5971893 173.17234592 -92.39543201 176.18631813 -84.625 178.375 C-83.83287109 178.61347656 -83.04074219 178.85195313 -82.22460938 179.09765625 C-68.75770436 183.02417702 -55.2951173 184.83946139 -41.36920166 186.01281738 C-38.48206967 186.25679683 -35.59627781 186.51354748 -32.71044922 186.77246094 C-23.619758 187.57938841 -14.53046212 188.31858411 -5.421875 188.890625 C46.77159375 192.25207498 100.06284343 204.45608277 136.6875 244.4375 C144.8125 253.68418142 144.8125 253.68418142 144.8125 257.25 C145.4725 257.25 146.1325 257.25 146.8125 257.25 C159.27511113 281.35849775 159.27511113 281.35849775 159.8125 295.25 C160.4725 295.25 161.1325 295.25 161.8125 295.25 C162.76478356 304.29066674 162.99877614 313.25995619 162.99780273 322.33984375 C162.99999017 324.61477365 163.01822591 326.88921766 163.03710938 329.1640625 C163.11102928 348.47364317 159.27303195 365.51481311 151.65356445 383.21020508 C150.80654243 385.26444863 150.06247384 387.33813248 149.32421875 389.43359375 C148.04277836 392.89339811 146.38165856 395.61923133 144.125 398.5625 C141.0318319 402.62051777 141.0318319 402.62051777 138.109375 406.80078125 C116.95660268 438.19645007 81.66442953 455.88178636 47.8125 470.25 C46.62986572 470.75370117 46.62986572 470.75370117 45.42333984 471.26757812 C39.44750404 473.74195681 33.43960584 475.61004856 27.1875 477.25 C26.22457031 477.5063623 25.26164062 477.76272461 24.26953125 478.02685547 C22.33777215 478.53905458 20.40517086 479.04808948 18.47167969 479.55371094 C16.17896964 480.15404229 13.88993745 480.76623813 11.6015625 481.3828125 C-3.17594207 485.25238586 -18.27251835 487.8533337 -33.41015625 489.85546875 C-36.09580189 490.1978146 -36.09580189 490.1978146 -38.33911133 490.74047852 C-42.05942825 491.40597105 -45.77109654 491.61076268 -49.5390625 491.796875 C-50.36652985 491.83850769 -51.19399719 491.88014038 -52.04653931 491.92303467 C-62.54801294 492.40968446 -73.05121832 492.49198589 -83.5625 492.5 C-84.61043732 492.50133942 -85.65837463 492.50267883 -86.73806763 492.50405884 C-103.74204714 492.4993671 -120.34701386 491.76562741 -137.1875 489.25 C-138.06857422 489.12189941 -138.94964844 488.99379883 -139.85742188 488.86181641 C-148.17094248 487.6206292 -156.20133943 485.88665225 -164.1875 483.25 C-165.858125 482.816875 -165.858125 482.816875 -167.5625 482.375 C-173.82270811 480.43217679 -180.13617733 478.08541682 -185.765625 474.69921875 C-188.09229384 473.30697014 -190.26421757 472.40340447 -192.8125 471.5 C-202.7368677 467.61271057 -211.13418995 461.11650647 -219.1875 454.25 C-220.15816406 453.42628906 -221.12882812 452.60257813 -222.12890625 451.75390625 C-237.61644951 438.28485813 -249.8937444 421.04064276 -251.5703125 400.02734375 C-252.24445384 387.215901 -249.68950237 376.17409178 -241.3125 366.125 C-237.73863034 362.4892749 -233.82509431 359.41638795 -229.1875 357.25 C-228.5275 357.25 -227.8675 357.25 -227.1875 357.25 C-227.1875 356.59 -227.1875 355.93 -227.1875 355.25 C-216.38299294 350.81738172 -204.37157144 348.87082423 -193.1875 353.25 C-191.85525391 353.76820313 -191.85525391 353.76820313 -190.49609375 354.296875 C-179.0530222 359.36942301 -170.21622564 368.05672413 -162.84375 378.03125 C-156.68547242 386.28101807 -150.24583302 392.32778166 -141.1875 397.25 C-140.21167969 397.78496094 -139.23585938 398.31992187 -138.23046875 398.87109375 C-129.96159519 403.04193438 -121.54568225 405.12484129 -112.50219727 406.80737305 C-110.93670543 407.10673353 -109.37691242 407.43730342 -107.82397461 407.79614258 C-99.69918831 409.55031368 -91.69808422 409.52001954 -83.4284668 409.45581055 C-81.02186286 409.43766485 -78.61564943 409.43530097 -76.20898438 409.43554688 C-55.66104616 410.37191115 -55.66104616 410.37191115 -36.40625 405.25390625 C-33.45916566 403.92045436 -30.63745246 403.60431777 -27.4375 403.125 C-12.3027518 400.57180576 2.43325195 394.81172188 16.6171875 389.0625 C18.8125 388.25 18.8125 388.25 20.8125 388.25 C20.8125 387.59 20.8125 386.93 20.8125 386.25 C21.98039062 385.68667969 23.14828125 385.12335938 24.3515625 384.54296875 C44.00616743 374.69837231 59.25765328 360.97813348 66.6328125 339.90625 C70.03551296 327.06225391 68.46521269 311.79810505 61.8125 300.25 C51.68710346 285.42155042 32.14086633 279.05343569 15.2635498 275.75128174 C0.13220141 273.02774645 -14.9310971 271.43651851 -30.26611328 270.46859741 C-36.16931783 270.09143302 -42.06895226 269.66501996 -47.96875 269.23828125 C-49.12221924 269.15500076 -50.27568848 269.07172028 -51.46411133 268.98591614 C-76.25043372 267.16742224 -100.13502358 263.55683809 -124.1875 257.25 C-125.19997803 256.98783691 -126.21245605 256.72567383 -127.25561523 256.45556641 C-132.1487735 255.16125513 -136.84235343 253.75993877 -141.5 251.75 C-142.44488281 251.3478125 -143.38976562 250.945625 -144.36328125 250.53125 C-150.1365284 247.91212819 -155.66766914 244.91999876 -161.1875 241.8125 C-162.21617187 241.23918945 -162.21617187 241.23918945 -163.265625 240.65429688 C-167.36301321 238.35147087 -171.39898242 236.03811216 -175.1875 233.25 C-175.1875 232.59 -175.1875 231.93 -175.1875 231.25 C-176.04794922 230.87294922 -176.04794922 230.87294922 -176.92578125 230.48828125 C-188.92227197 223.92025438 -197.3539266 208.53085686 -202.1875 196.25 C-202.55617187 195.34507812 -202.92484375 194.44015625 -203.3046875 193.5078125 C-213.51608625 167.19669018 -208.88869491 136.65398492 -198.1875 111.25 C-195.83713304 106.06434575 -193.10827024 101.13288692 -190.1875 96.25 C-189.83961426 95.66025391 -189.49172852 95.07050781 -189.13330078 94.46289062 C-162.15240302 49.16955745 -111.06075027 20.7288685 -61.25390625 8.02001953 C-60.24199219 7.76591309 -59.23007812 7.51180664 -58.1875 7.25 C-57.20652344 7.00233887 -56.22554687 6.75467773 -55.21484375 6.49951172 C-52.37655096 5.79328106 -49.53413503 5.10925738 -46.6875 4.4375 C-45.87732422 4.2425293 -45.06714844 4.04755859 -44.23242188 3.84667969 C-29.59812263 0.54084396 -14.9416151 -0.09887726 0 0 Z " fill="#FDFDFD" transform="translate(360.1875,213.75)"/>
<path d="M0 0 C4.04631155 1.62810169 7.63030878 1.8976048 11.98046875 2.046875 C25.95110859 3.06605748 36.94490462 10.470516 45.98046875 20.796875 C51.15538618 27.29612613 55.01640998 34.04397861 57.98046875 41.796875 C58.44839844 43.00730469 58.91632813 44.21773438 59.3984375 45.46484375 C64.42375726 59.62506271 66.04306481 77.29773256 60.171875 91.43359375 C59.77871094 92.21347656 59.38554688 92.99335938 58.98046875 93.796875 C58.61824219 94.52519531 58.25601562 95.25351562 57.8828125 96.00390625 C52.1243312 106.21301039 43.60579143 112.28761184 32.62109375 115.90234375 C20.52451335 118.8745722 10.50833523 116.57692679 -0.1171875 110.62109375 C-8.07362435 105.34403194 -14.07673839 96.76511197 -19.95703125 89.35546875 C-27.75653027 79.77483414 -39.75239795 73.28977526 -52.01953125 71.796875 C-69.82638035 70.87884607 -69.82638035 70.87884607 -87.01953125 74.796875 C-87.61749512 75.02262207 -88.21545898 75.24836914 -88.83154297 75.48095703 C-115.31530002 85.68625074 -138.11850854 105.32054797 -154.76318359 128.08740234 C-156.046416 129.83345624 -157.35270996 131.56014595 -158.6640625 133.28515625 C-169.91700113 148.19529994 -179.49114146 163.9744808 -187.921875 180.63232422 C-188.94166273 182.64332022 -189.9776258 184.64493058 -191.01953125 186.64453125 C-194.38218301 193.18865741 -197.22989289 199.74031017 -199.765625 206.64453125 C-201.03882623 209.84538293 -202.53385133 212.81610016 -204.14453125 215.859375 C-206.66238599 220.74772912 -208.07602779 225.35616505 -209.24609375 230.7109375 C-210.06239864 233.96791157 -211.2118388 236.93012055 -212.45703125 240.046875 C-221.97082074 265.80021454 -224.7646269 302.56158804 -216.01953125 328.796875 C-215.97998891 331.12987325 -215.97551393 333.46395689 -216.01953125 335.796875 C-215.35953125 335.796875 -214.69953125 335.796875 -214.01953125 335.796875 C-213.06043574 338.02571645 -212.10223288 340.25493468 -211.14453125 342.484375 C-210.87511719 343.11021484 -210.60570312 343.73605469 -210.328125 344.38085938 C-208.84506847 347.83529594 -207.39725641 351.29905821 -206.01953125 354.796875 C-205.35953125 354.796875 -204.69953125 354.796875 -204.01953125 354.796875 C-202.86328125 356.1953125 -202.86328125 356.1953125 -201.51953125 358.171875 C-191.21741294 372.26557196 -178.23382484 380.16628082 -162.01953125 385.796875 C-160.88902344 386.21324219 -159.75851562 386.62960937 -158.59375 387.05859375 C-136.64974916 393.8936104 -112.06504748 390.95514431 -91.01953125 382.796875 C-90.20742188 382.48685547 -89.3953125 382.17683594 -88.55859375 381.85742188 C-60.35522779 370.82437755 -36.97135077 352.32907733 -16.01953125 330.796875 C-5.39578198 319.9140099 5.40594042 312.43315752 21.04296875 312.234375 C31.872607 312.14476931 40.67882172 315.65545815 48.98046875 322.796875 C48.98046875 323.456875 48.98046875 324.116875 48.98046875 324.796875 C49.57730469 325.03148437 50.17414063 325.26609375 50.7890625 325.5078125 C53.51473993 327.11115217 54.46182367 328.69808908 56.04296875 331.421875 C56.52894531 332.23914063 57.01492188 333.05640625 57.515625 333.8984375 C60.94509361 340.68421273 62.54260179 346.410725 62.48046875 354.046875 C62.47402344 354.88025391 62.46757813 355.71363281 62.4609375 356.57226562 C61.92811657 374.67415549 48.91685562 387.47409309 36.98046875 399.796875 C36.30709473 400.49216309 35.6337207 401.18745117 34.93994141 401.90380859 C27.00459339 410.05454719 19.12884413 417.99800213 9.98046875 424.796875 C8.46236019 425.99496067 6.94426823 427.19306747 5.42651367 428.39160156 C-29.54081748 455.796875 -29.54081748 455.796875 -41.01953125 455.796875 C-41.01953125 456.456875 -41.01953125 457.116875 -41.01953125 457.796875 C-42.99953125 458.126875 -44.97953125 458.456875 -47.01953125 458.796875 C-47.01953125 459.456875 -47.01953125 460.116875 -47.01953125 460.796875 C-47.54417969 460.94382812 -48.06882812 461.09078125 -48.609375 461.2421875 C-52.76923463 462.44653954 -56.87890221 463.72520231 -60.94140625 465.2265625 C-69.13252061 468.24959832 -77.04211739 470.66048685 -85.65234375 472.15625 C-89.01746531 472.73367491 -89.01746531 472.73367491 -92.19921875 473.76733398 C-96.32212193 474.87842056 -100.27440369 475.47578855 -104.51171875 475.91015625 C-105.32808807 475.99445389 -106.1444574 476.07875153 -106.98556519 476.16560364 C-116.38057381 477.04551923 -125.76807099 477.06348025 -135.19677734 477.00268555 C-138.20418469 476.98400445 -141.21128973 476.98217953 -144.21875 476.98242188 C-146.13411727 476.97751999 -148.04948247 476.97169758 -149.96484375 476.96484375 C-151.3113652 476.96317451 -151.3113652 476.96317451 -152.68508911 476.96147156 C-158.90334347 476.91306278 -158.90334347 476.91306278 -160.01953125 475.796875 C-161.07140625 475.6525 -162.12328125 475.508125 -163.20703125 475.359375 C-167.01953125 474.796875 -167.01953125 474.796875 -169.70703125 473.859375 C-172.73603061 472.88780917 -175.51015827 472.34848392 -178.64453125 471.859375 C-190.12537891 470.01676982 -201.52217889 467.32271575 -211.58203125 461.25 C-213.89513492 459.87103435 -216.05451785 458.95352955 -218.58203125 458.046875 C-224.73022383 455.65436567 -230.6043743 452.57445872 -236.01953125 448.796875 C-236.01953125 448.136875 -236.01953125 447.476875 -236.01953125 446.796875 C-236.75816406 446.53003906 -237.49679687 446.26320313 -238.2578125 445.98828125 C-255.30163662 438.6355707 -270.7825037 419.20328953 -281.45703125 404.421875 C-282.13173462 403.49242065 -282.13173462 403.49242065 -282.82006836 402.54418945 C-286.01953125 398.04085075 -286.01953125 398.04085075 -286.01953125 395.796875 C-286.67953125 395.796875 -287.33953125 395.796875 -288.01953125 395.796875 C-289.31370525 393.23561436 -290.60493909 390.67294142 -291.89453125 388.109375 C-292.25933594 387.38814453 -292.62414062 386.66691406 -293 385.92382812 C-298.01953125 375.93039773 -298.01953125 375.93039773 -298.01953125 371.796875 C-298.67953125 371.796875 -299.33953125 371.796875 -300.01953125 371.796875 C-301.02657485 368.6949486 -302.0239393 365.58999402 -303.01953125 362.484375 C-303.30570313 361.60330078 -303.591875 360.72222656 -303.88671875 359.81445312 C-304.15742187 358.96689453 -304.428125 358.11933594 -304.70703125 357.24609375 C-304.95839844 356.46580811 -305.20976563 355.68552246 -305.46875 354.8815918 C-306.01953125 352.796875 -306.01953125 352.796875 -306.01953125 349.796875 C-306.67953125 349.796875 -307.33953125 349.796875 -308.01953125 349.796875 C-310.16399235 342.31149191 -311.41668208 335.19630845 -311.80859375 327.4140625 C-311.8537647 324.81681397 -311.8537647 324.81681397 -313.01953125 322.796875 C-313.11919914 319.75267921 -313.15929665 316.73190015 -313.15234375 313.6875 C-313.15330048 312.76910339 -313.1542572 311.85070679 -313.15524292 310.90447998 C-313.15592491 308.95080497 -313.15406932 306.99712771 -313.14990234 305.04345703 C-313.14462742 302.10053159 -313.14980818 299.15776395 -313.15625 296.21484375 C-313.16657627 270.62416816 -313.16657627 270.62416816 -311.01953125 260.796875 C-310.35953125 260.796875 -309.69953125 260.796875 -309.01953125 260.796875 C-309.055625 259.65541016 -309.09171875 258.51394531 -309.12890625 257.33789062 C-309.1248835 252.75849185 -308.31158015 248.58396567 -307.26953125 244.140625 C-307.09196289 243.35288696 -306.91439453 242.56514893 -306.73144531 241.75354004 C-306.16881658 239.26608324 -305.59439686 236.78152904 -305.01953125 234.296875 C-304.63332826 232.59913702 -304.24790407 230.90122167 -303.86328125 229.203125 C-302.92435139 225.06560436 -301.97484556 220.93064198 -301.01953125 216.796875 C-300.35953125 216.796875 -299.69953125 216.796875 -299.01953125 216.796875 C-298.93832031 215.90871094 -298.85710938 215.02054688 -298.7734375 214.10546875 C-297.92533025 208.168718 -295.82565233 202.53623938 -293.95703125 196.859375 C-293.57998047 195.69857422 -293.20292969 194.53777344 -292.81445312 193.34179688 C-291.88790601 190.49178486 -290.95613252 187.64359549 -290.01953125 184.796875 C-289.35953125 184.796875 -288.69953125 184.796875 -288.01953125 184.796875 C-287.9215625 183.96542969 -287.82359375 183.13398438 -287.72265625 182.27734375 C-286.9154172 178.28151046 -285.45240988 174.7938022 -283.76953125 171.109375 C-283.4552417 170.40675537 -283.14095215 169.70413574 -282.81713867 168.98022461 C-281.89168371 166.91582074 -280.956975 164.85585732 -280.01953125 162.796875 C-279.54644531 161.75015625 -279.07335937 160.7034375 -278.5859375 159.625 C-277.7676638 157.82020942 -276.94369775 156.01798576 -276.11328125 154.21875 C-275.43716825 152.72164265 -274.78586425 151.2127075 -274.17578125 149.6875 C-271.39917544 142.84882272 -267.37303532 136.82324925 -263.421875 130.62109375 C-261.54987786 127.67195826 -259.79944781 124.68721047 -258.14453125 121.609375 C-256.39538489 118.36183402 -254.32688279 115.68106442 -252.01953125 112.796875 C-250.72012427 110.44903685 -249.47519282 108.08284086 -248.265625 105.6875 C-247.01953125 103.796875 -247.01953125 103.796875 -244.01953125 102.796875 C-243.34760836 100.79863476 -242.68196811 98.79827997 -242.01953125 96.796875 C-240.53017594 94.61544008 -239.04798639 92.59162714 -237.39453125 90.546875 C-236.95302734 89.98911377 -236.51152344 89.43135254 -236.05664062 88.85668945 C-235.15412459 87.71831806 -234.24821029 86.58263234 -233.33886719 85.44970703 C-232.09356676 83.88962489 -230.87214205 82.31057051 -229.65234375 80.73046875 C-228.94851563 79.82425781 -228.2446875 78.91804688 -227.51953125 77.984375 C-226.5759375 76.76814453 -226.5759375 76.76814453 -225.61328125 75.52734375 C-225.08734375 74.95628906 -224.56140625 74.38523437 -224.01953125 73.796875 C-223.35953125 73.796875 -222.69953125 73.796875 -222.01953125 73.796875 C-221.7978125 73.25804687 -221.57609375 72.71921875 -221.34765625 72.1640625 C-219.58011437 69.01367904 -217.23077913 66.53381153 -214.76953125 63.921875 C-214.24302979 63.35887695 -213.71652832 62.79587891 -213.17407227 62.21582031 C-203.64429459 52.08982065 -194.03612501 42.32384305 -183.01953125 33.796875 C-181.49585938 32.58257812 -181.49585938 32.58257812 -179.94140625 31.34375 C-172.84917284 25.72938031 -165.51478461 20.66590013 -157.81982422 15.91455078 C-156.00198892 14.7859842 -154.20025949 13.63439023 -152.3984375 12.48046875 C-143.95832522 7.15477249 -135.34175724 3.08397661 -126.01269531 -0.44628906 C-124.20233533 -1.1337114 -122.40316096 -1.85041287 -120.60546875 -2.5703125 C-82.46059895 -17.22741044 -37.51660118 -16.20185962 0 0 Z " fill="#FDFDFD" transform="translate(875.01953125,222.203125)"/>
<path d="M0 0 C272.91 0 545.82 0 827 0 C827 21.12 827 42.24 827 64 C554.09 64 281.18 64 0 64 C0 42.88 0 21.76 0 0 Z " fill="#FD8C29" transform="translate(110,773)"/>
<path d="M0 0 C149.49 0 298.98 0 453 0 C451.68 0.66 450.36 1.32 449 2 C448.67 2.33 448.34 2.66 448 3 C446.62623129 3.12002261 445.24648414 3.17253664 443.8677063 3.1973877 C442.97511738 3.21573669 442.08252846 3.23408569 441.16289139 3.25299072 C439.68064638 3.27568024 439.68064638 3.27568024 438.16845703 3.29882812 C437.13294079 3.31826477 436.09742455 3.33770142 435.03052902 3.35772705 C431.56469503 3.42090751 428.09878696 3.47635229 424.6328125 3.53125 C422.18986864 3.57311037 419.74692636 3.61506345 417.3039856 3.65710449 C387.2774353 4.15718135 357.24748457 4.34754036 327.21777344 4.55224609 C320.98928763 4.59498954 314.76084712 4.64213806 308.53241348 4.69187927 C305.08932092 4.71801275 301.64622235 4.73902833 298.20309448 4.7598877 C289.31111212 4.82510509 280.49730333 4.89382714 271.6421814 5.78283691 C266.38247478 6.21513657 261.10939851 6.10065075 255.8359375 6.0625 C254.60501373 6.05871338 253.37408997 6.05492676 252.10586548 6.05102539 C246.90712112 6.03492881 241.70845986 6.00707495 236.50976562 5.97949219 C223.35182386 5.91587873 210.22520291 5.90668959 197.078125 6.4921875 C183.53276375 7.09451389 169.99649708 7.15344486 156.44042969 7.13037109 C153.0480741 7.12466263 149.65579689 7.12806948 146.26344395 7.13382339 C134.10771258 7.15116887 121.97431578 7.12062996 109.83203125 6.4921875 C98.48831251 5.92138059 87.15559424 5.91984292 75.80078125 5.9375 C74.379114 5.93964319 74.379114 5.93964319 72.9287262 5.94182968 C66.05662596 5.95412641 59.1845687 5.97624056 52.3125 6 C45.36823527 6.0237158 38.42399197 6.04398306 31.47969627 6.05593872 C28.7249023 6.06238505 25.97017914 6.07487243 23.21540833 6.08764648 C21.53463806 6.09127694 19.85386716 6.09462892 18.1730957 6.09765625 C17.41526291 6.10282257 16.65743011 6.10798889 15.87663269 6.11331177 C12.12207521 6.11368762 8.64991976 5.90624336 5 5 C3.81899221 8.69064935 3.93471848 12.14839027 4 16 C4.12676056 23.47887324 4.12676056 23.47887324 3 27 C3.66 27.33 4.32 27.66 5 28 C4.67 28.33 4.34 28.66 4 29 C3.91209025 31.29151417 3.89305962 33.58572524 3.90234375 35.87890625 C3.9037587 36.5655687 3.90517365 37.25223114 3.90663147 37.95970154 C3.91224521 40.16067801 3.92479993 42.36155409 3.9375 44.5625 C3.94251324 46.05143083 3.94707645 47.54036324 3.95117188 49.02929688 C3.96221907 52.68623075 3.97949287 56.34310558 4 60 C42.6767366 60.02287181 81.35347219 60.040501 120.03021418 60.05106533 C124.59281532 60.05231609 129.15541645 60.0536104 133.71801758 60.05493164 C134.62637754 60.05519395 135.5347375 60.05545626 136.47062352 60.05572652 C151.19287963 60.06008188 165.91513184 60.0679687 180.63738564 60.0771528 C195.73549557 60.08649305 210.83360345 60.0920564 225.93171614 60.09408849 C235.25357043 60.09546295 244.57541372 60.09980936 253.89726462 60.10791647 C260.28321511 60.1131885 266.66915989 60.11480325 273.0551124 60.11350138 C276.74350193 60.11285872 280.4318722 60.11386744 284.12025833 60.11920547 C288.11291973 60.1249419 292.10555574 60.12299691 296.09822083 60.12025452 C297.27233058 60.12316736 298.44644034 60.1260802 299.65612918 60.12908131 C301.25351728 60.12609474 301.25351728 60.12609474 302.88317585 60.12304783 C303.80551653 60.12342755 304.72785721 60.12380727 305.67814761 60.1241985 C308.15865193 60.09439526 308.15865193 60.09439526 311 59 C312.11375 59.165 313.2275 59.33 314.375 59.5 C317.76754535 59.96793729 319.73245854 59.70649545 323 59 C323.58737442 59.15267334 324.17474884 59.30534668 324.77992249 59.46264648 C327.52410968 60.12685691 330.00941932 60.1119571 332.83374023 60.09765625 C334.01652557 60.09439331 335.19931091 60.09113037 336.41793823 60.08776855 C337.70185455 60.07942993 338.98577087 60.07109131 340.30859375 60.0625 C341.66097834 60.05774063 343.01336509 60.05356124 344.36575317 60.04992676 C347.23612825 60.04167441 350.10647824 60.03098771 352.97683716 60.01831055 C360.38817579 59.9865073 367.79953626 59.97392196 375.2109375 59.96875 C376.3059983 59.96792671 376.3059983 59.96792671 377.42318153 59.96708679 C394.62613075 59.96004224 411.81036871 60.33278607 429 61 C429 61.33 429 61.66 429 62 C424.13348163 62.78959434 419.47612506 63.12451057 414.5481348 63.12304783 C413.8275642 63.12420167 413.10699359 63.12535552 412.36458752 63.12654433 C409.95552362 63.12918643 407.54652687 63.12470873 405.13746643 63.12025452 C403.39075913 63.12069071 401.64405189 63.12156651 399.89734501 63.12284368 C395.10168794 63.12507918 390.30605321 63.12108026 385.51039898 63.11606562 C380.33733123 63.11174776 375.16426473 63.1132085 369.99119568 63.1139679 C361.02986414 63.11449228 352.06853987 63.11135437 343.10721016 63.10573006 C330.1506258 63.09760353 317.19404497 63.09499865 304.23745834 63.09374207 C283.21632765 63.09155336 262.19520085 63.08489819 241.17407227 63.07543945 C220.75382507 63.06626065 200.33357892 63.0591821 179.91333008 63.05493164 C178.65465701 63.05466892 177.39598394 63.05440619 176.09916926 63.05413551 C169.78478564 63.05283047 163.47040201 63.05156676 157.15601838 63.05032361 C104.77067609 63.03995665 52.38533855 63.02206807 0 63 C0 42.21 0 21.42 0 0 Z " fill="#FDBA73" transform="translate(111,774)"/>
<path d="M0 0 C1.78919617 -0.00337094 1.78919617 -0.00337094 3.61453772 -0.00680998 C4.95266753 -0.00424384 6.29079716 -0.00158691 7.62892663 0.00115067 C9.0450577 0.0004117 10.4611886 -0.00076617 11.87731898 -0.00234583 C15.79994379 -0.00543183 19.72254293 -0.00222574 23.64516585 0.0019323 C27.90082548 0.00535203 32.15648237 0.00299848 36.41214252 0.00135481 C43.88098404 -0.00072412 51.34981763 0.00093367 58.81865823 0.00499302 C69.9246612 0.01101248 81.03065912 0.01133028 92.13666342 0.01045103 C110.81608077 0.00913513 129.49549459 0.01248612 148.1749109 0.01846844 C166.67816375 0.02437919 185.18141512 0.02823312 203.6846689 0.02932125 C204.8338129 0.02938999 205.9829569 0.02945873 207.16692345 0.02952956 C213.00250276 0.02986787 218.83808208 0.03016926 224.6736614 0.03045643 C266.04041572 0.03255858 307.40716813 0.03930076 348.77392137 0.04875904 C388.96890825 0.05793882 429.1638946 0.06502471 469.35888231 0.06926686 C470.59719161 0.06939838 471.83550091 0.06952991 473.11133473 0.06966542 C485.54659402 0.0709839 497.98185332 0.07225972 510.41711262 0.07350428 C535.75067902 0.0760407 561.0842454 0.07886196 586.41781175 0.08185536 C588.16512536 0.08206129 588.16512536 0.08206129 589.94773823 0.08227139 C650.24810166 0.08940357 710.5484642 0.10076489 770.84882677 0.1130901 C772.12159345 0.1133502 772.12159345 0.1133502 773.42007259 0.11361557 C790.09205867 0.11703031 806.7640447 0.12063229 823.43603075 0.1241985 C823.43603075 22.2341985 823.43603075 44.3441985 823.43603075 67.1241985 C549.53603075 67.1241985 275.63603075 67.1241985 -6.56396925 67.1241985 C-7.94822337 64.35569027 -7.68356888 62.12000665 -7.67749465 59.02214772 C-7.67741911 57.74097065 -7.67734358 56.45979359 -7.67726576 55.13979298 C-7.67215873 53.73615693 -7.66694273 52.33252127 -7.6616255 50.928886 C-7.65976071 49.49684914 -7.6583371 48.06481165 -7.65733778 46.63277394 C-7.65351744 42.86146496 -7.64369127 39.09019442 -7.63263381 35.31890064 C-7.62240931 31.47145314 -7.61783794 27.62399942 -7.61279738 23.77654225 C-7.60206858 16.22574346 -7.58499794 8.67497636 -7.56396925 1.1241985 C-4.92282335 -0.19637446 -2.95947038 -0.00044638 0 0 Z M-5.56396925 1.1241985 C-5.56396925 22.2441985 -5.56396925 43.3641985 -5.56396925 65.1241985 C267.34603075 65.1241985 540.25603075 65.1241985 821.43603075 65.1241985 C821.43603075 44.0041985 821.43603075 22.8841985 821.43603075 1.1241985 C548.52603075 1.1241985 275.61603075 1.1241985 -5.56396925 1.1241985 Z " fill="#582C11" transform="translate(115.56396925449371,771.8758015036583)"/>
<path d="M0 0 C82.83 0 165.66 0 251 0 C249.68 0.66 248.36 1.32 247 2 C246.67 2.33 246.34 2.66 246 3 C244.62623129 3.12002261 243.24648414 3.17253664 241.8677063 3.1973877 C240.97511738 3.21573669 240.08252846 3.23408569 239.16289139 3.25299072 C237.68064638 3.27568024 237.68064638 3.27568024 236.16845703 3.29882812 C235.13294079 3.31826477 234.09742455 3.33770142 233.03052902 3.35772705 C229.56469503 3.42090751 226.09878696 3.47635229 222.6328125 3.53125 C220.18986864 3.57311037 217.74692636 3.61506345 215.3039856 3.65710449 C185.2774353 4.15718135 155.24748457 4.34754036 125.21777344 4.55224609 C118.98928763 4.59498954 112.76084712 4.64213806 106.53241348 4.69187927 C103.08932092 4.71801275 99.64622235 4.73902833 96.20309448 4.7598877 C87.31111212 4.82510509 78.49730333 4.89382714 69.6421814 5.78283691 C64.38247478 6.21513657 59.10939851 6.10065075 53.8359375 6.0625 C52.60501373 6.05871338 51.37408997 6.05492676 50.10586548 6.05102539 C44.90712112 6.03492881 39.70845986 6.00707495 34.50976562 5.97949219 C21.35182386 5.91587873 8.22520291 5.90668959 -4.921875 6.4921875 C-18.46723625 7.09451389 -32.00350292 7.15344486 -45.55957031 7.13037109 C-48.95188426 7.1246627 -52.34411982 7.12806984 -55.73643112 7.13382244 C-68.06286643 7.15141621 -80.36648243 7.1088773 -92.6796875 6.49609375 C-108.14387403 5.73358269 -123.61886977 5.88726566 -139.09729004 5.93133545 C-143.16120873 5.94176211 -147.22513415 5.94617348 -151.2890625 5.95117188 C-159.19272612 5.9617389 -167.09635805 5.97869182 -175 6 C-174.67 5.34 -174.34 4.68 -174 4 C-157.70986019 3.84583834 -141.41967787 3.69781326 -125.12941742 3.5570364 C-117.56508995 3.49152501 -110.00079007 3.42402723 -102.43652344 3.35180664 C-95.84133413 3.2888435 -89.24612343 3.22965481 -82.65086031 3.17494446 C-79.16071655 3.14586193 -75.670612 3.11492613 -72.18052673 3.07946587 C-68.27859608 3.03989201 -64.3766222 3.00874722 -60.47460938 2.97827148 C-59.32517853 2.96532547 -58.17574768 2.95237946 -56.9914856 2.93904114 C-51.21349791 2.90106987 -45.7151557 3.15449528 -40 4 C-37.50779463 4.05248577 -37.50779463 4.05248577 -35.2578125 3.87890625 C-34.01197388 3.80627563 -34.01197388 3.80627563 -32.7409668 3.73217773 C-31.87769775 3.67618408 -31.01442871 3.62019043 -30.125 3.5625 C-20.40458423 3.00885478 -10.73347088 2.89303878 -1 3 C-0.67 2.01 -0.34 1.02 0 0 Z " fill="#FCA655" transform="translate(313,774)"/>
<path d="M0 0 C1.31848434 -0.00014603 2.63696869 -0.00029205 3.9954071 -0.0004425 C7.57104278 -0.00072656 11.14664414 0.0051062 14.72227192 0.01213145 C18.4738427 0.01843082 22.22541449 0.01897395 25.97698975 0.02015686 C33.06333266 0.02325092 40.14965994 0.03143807 47.23599601 0.04150635 C56.82434135 0.05483048 66.41269104 0.06018296 76.00104332 0.06600857 C91.08241296 0.07537948 106.16374963 0.09531118 121.24511719 0.11352539 C121.24511719 20.57352539 121.24511719 41.03352539 121.24511719 62.11352539 C109.59926134 62.1418302 97.95349061 62.16498075 86.30761719 62.17602539 C85.41168728 62.17688141 84.51575737 62.17773743 83.59267807 62.17861938 C49.24543657 62.2074439 14.90296487 61.96038497 -19.44238281 61.61352539 C-20.62690411 61.60156757 -21.8114254 61.58960976 -23.03184128 61.57728958 C-37.60626324 61.42953628 -52.180606 61.27494493 -66.75488281 61.11352539 C-66.75488281 60.78352539 -66.75488281 60.45352539 -66.75488281 60.11352539 C-5.70488281 60.11352539 55.34511719 60.11352539 118.24511719 60.11352539 C118.24511719 52.19352539 118.24511719 44.27352539 118.24511719 36.11352539 C118.38175413 30.27717594 118.53476848 24.44681965 118.74511719 18.61352539 C118.7936635 17.18124619 118.84183992 15.74895441 118.88964844 14.31665039 C119.00393889 10.91545498 119.12300606 7.51445017 119.24511719 4.11352539 C98.17702604 4.00667256 77.1207167 4.03591121 56.05761719 4.55102539 C54.7699646 4.58049759 54.7699646 4.58049759 53.45629883 4.61056519 C51.01725143 4.66762219 48.57846732 4.73107521 46.13964844 4.79711914 C45.42573441 4.81383667 44.71182037 4.8305542 43.97627258 4.84777832 C39.98483556 4.96665954 36.16688512 5.3621747 32.24511719 6.11352539 C32.24511719 5.45352539 32.24511719 4.79352539 32.24511719 4.11352539 C29.60511719 4.77352539 26.96511719 5.43352539 24.24511719 6.11352539 C24.24511719 5.45352539 24.24511719 4.79352539 24.24511719 4.11352539 C23.68824219 4.46415039 23.13136719 4.81477539 22.55761719 5.17602539 C19.662567 6.34969439 18.25200788 5.77357457 15.24511719 5.11352539 C13.57690396 5.43903041 11.91012162 5.77198602 10.24511719 6.11352539 C8.90943697 5.78972413 7.57588708 5.45694988 6.24511719 5.11352539 C5.58511719 5.27852539 4.92511719 5.44352539 4.24511719 5.61352539 C1.85889325 6.21008137 0.5858699 5.77186209 -1.75488281 5.11352539 C-3.07488281 5.11352539 -4.39488281 5.11352539 -5.75488281 5.11352539 C-6.7384375 5.10192383 -7.72199219 5.09032227 -8.73535156 5.07836914 C-9.79367187 5.0693457 -10.85199219 5.06032227 -11.94238281 5.05102539 C-13.54146484 5.03362305 -13.54146484 5.03362305 -15.17285156 5.01586914 C-17.68590381 4.81792077 -17.68590381 4.81792077 -18.75488281 6.11352539 C-25.85019784 6.34615867 -25.85019784 6.34615867 -28.94238281 5.55102539 C-30.8535936 4.95377265 -30.8535936 4.95377265 -33.19238281 5.61352539 C-36.06935052 6.17488494 -37.90811259 5.68287944 -40.75488281 5.11352539 C-42.42309604 5.43903041 -44.08987838 5.77198602 -45.75488281 6.11352539 C-47.09088202 5.79104282 -48.42381659 5.45579956 -49.75488281 5.11352539 C-54.9030167 4.72997145 -54.9030167 4.72997145 -59.75488281 6.11352539 C-59.75488281 5.45352539 -59.75488281 4.79352539 -59.75488281 4.11352539 C-61.73488281 5.10352539 -61.73488281 5.10352539 -63.75488281 6.11352539 C-63.75488281 5.45352539 -63.75488281 4.79352539 -63.75488281 4.11352539 C-64.39425781 4.25790039 -65.03363281 4.40227539 -65.69238281 4.55102539 C-71.33402388 5.58724518 -77.01161803 6.28244494 -82.75488281 6.11352539 C-83.74488281 6.11352539 -84.73488281 6.11352539 -85.75488281 6.11352539 C-88.42844438 5.82725494 -91.08853856 5.46320988 -93.75488281 5.11352539 C-91.04839012 3.42196746 -88.68876951 2.89846879 -85.56738281 2.55102539 C-81.97297343 2.53891005 -81.97297343 2.53891005 -80.75488281 1.11352539 C-79.0996101 1.02519922 -77.44056079 1.00662126 -75.78295898 1.01586914 C-74.72062546 1.01917236 -73.65829193 1.02247559 -72.56376648 1.02587891 C-71.40351456 1.03417725 -70.24326263 1.04247559 -69.04785156 1.05102539 C-67.85694412 1.05481201 -66.66603668 1.05859863 -65.43904114 1.0625 C-60.32723822 1.07886438 -55.21551418 1.1067237 -50.10375977 1.1340332 C-46.37679422 1.15226853 -42.64984236 1.16427882 -38.92285156 1.17602539 C-37.78486618 1.18432373 -36.6468808 1.19262207 -35.47441101 1.20117188 C-34.37740372 1.2044751 -33.28039642 1.20777832 -32.15014648 1.21118164 C-31.20274094 1.21641846 -30.25533539 1.22165527 -29.27922058 1.22705078 C-26.23056793 1.12884808 -23.25025141 0.89582849 -20.21485901 0.61451721 C-13.46800662 0.03020587 -6.76860624 -0.01995971 0 0 Z " fill="#FA841B" transform="translate(814.7548828125,773.886474609375)"/>
<path d="M0 0 C0.97207403 -0.00170885 1.94414807 -0.0034177 2.94567889 -0.00517833 C6.20545314 -0.00847462 9.46502191 0.00253289 12.72477722 0.01345825 C15.06046036 0.01402234 17.39614385 0.01370586 19.73182678 0.01257324 C26.07640066 0.01199862 32.42089915 0.02377076 38.76545548 0.03772116 C44.7230542 0.04894515 50.68064997 0.05096689 56.63825782 0.0530249 C68.43745691 0.05740076 80.23662832 0.0707069 92.03581238 0.08963013 C103.49674847 0.10799175 114.95767704 0.12214687 126.41862488 0.13064575 C127.47853138 0.13143392 127.47853138 0.13143392 128.55985013 0.13223802 C132.1047218 0.13484811 135.64959352 0.13737552 139.19446528 0.13986182 C168.59675833 0.16059092 197.99902431 0.1959623 227.40129089 0.24050903 C227.40129089 0.57050903 227.40129089 0.90050903 227.40129089 1.24050903 C213.66452977 2.66985963 199.87905291 2.31762654 186.08879089 2.24050903 C181.25936638 2.21400667 176.42997892 2.19402569 171.60050964 2.17800903 C170.49027939 2.16971069 169.38004913 2.16141235 168.23617554 2.15286255 C167.2203389 2.14955933 166.20450226 2.1462561 165.15788269 2.14285278 C163.81224495 2.13499756 163.81224495 2.13499756 162.43942261 2.12698364 C160.40652188 2.01304905 160.40652188 2.01304905 159.40129089 3.24050903 C156.57804109 3.3906316 153.7769847 3.47660193 150.95133972 3.52175903 C150.0630397 3.53980591 149.17473969 3.55785278 148.25952148 3.57644653 C145.29252445 3.63564613 142.3254442 3.6879823 139.35832214 3.74050903 C137.27926703 3.78104042 135.20022146 3.82206386 133.1211853 3.86355591 C127.60730772 3.97253899 122.09334122 4.07601393 116.57933044 4.17800903 C107.87863412 4.33958595 99.17806444 4.50783416 90.47753716 4.67824936 C88.35291522 4.71982388 86.22828773 4.76111578 84.10365486 4.80212784 C71.70374037 5.0427173 59.31089348 5.34000249 46.91691589 5.79519653 C34.76799131 6.23953516 22.63442297 6.39566835 10.47770691 6.37088013 C7.24971643 6.36535662 4.02185622 6.37096499 0.79386902 6.37722778 C-1.28620941 6.37656935 -3.36628776 6.3752931 -5.44636536 6.37332153 C-6.87421104 6.37635788 -6.87421104 6.37635788 -8.3309021 6.37945557 C-12.59753954 6.36423832 -16.41150251 6.09003116 -20.59870911 5.24050903 C-21.50062438 5.47121849 -21.50062438 5.47121849 -22.42076015 5.70658875 C-24.87789458 6.30895085 -27.0318258 6.36051364 -29.56137085 6.35403442 C-30.56067123 6.35396393 -31.55997162 6.35389343 -32.58955383 6.3538208 C-34.22519287 6.34607132 -34.22519287 6.34607132 -35.89387512 6.33816528 C-37.04721848 6.33670502 -38.20056183 6.33524475 -39.38885498 6.33374023 C-41.89554839 6.32993279 -44.40223911 6.3238147 -46.9089222 6.31567383 C-50.8818476 6.30291516 -54.85475713 6.29624974 -58.82769775 6.29153442 C-67.98752699 6.27949685 -77.14732729 6.25751565 -86.30713654 6.23530579 C-94.68557543 6.21507241 -103.06400409 6.19700212 -111.44246238 6.18709087 C-116.01471869 6.18134724 -120.58691505 6.16778369 -125.15914917 6.15286255 C-127.57202614 6.14922696 -129.98490356 6.14587562 -132.39778137 6.14285278 C-133.47403778 6.13768646 -134.55029419 6.13252014 -135.65916443 6.12719727 C-141.64231887 6.12678336 -147.48114341 6.42944031 -153.42608547 7.12284851 C-155.59870911 7.24050903 -155.59870911 7.24050903 -157.59870911 6.24050903 C-159.92287206 6.15464094 -162.24954217 6.1333986 -164.57527161 6.14285278 C-165.2605191 6.14426773 -165.9457666 6.14568268 -166.65177917 6.1471405 C-168.84246671 6.15274229 -171.03305241 6.16529497 -173.22370911 6.17800903 C-174.70808263 6.18302381 -176.19245776 6.18758675 -177.67683411 6.19168091 C-181.31749226 6.20271226 -184.95809075 6.21997804 -188.59870911 6.24050903 C-188.59870911 5.91050903 -188.59870911 5.58050903 -188.59870911 5.24050903 C-182.80030257 4.24927441 -177.16365859 4.07702862 -171.28791809 4.05105591 C-170.27148224 4.0427626 -169.25504639 4.0344693 -168.20780945 4.02592468 C-164.83682436 3.99941144 -161.46583121 3.97945253 -158.09480286 3.95925903 C-155.7006798 3.9411584 -153.30656052 3.92255292 -150.91244507 3.9034729 C-144.56936531 3.85388987 -138.22626132 3.80943272 -131.88313293 3.76657104 C-101.85369134 3.56312858 -71.82324017 3.35935806 -41.79657173 2.88893127 C-39.41500048 2.85276506 -37.03337816 2.81980568 -34.65171623 2.79020691 C-31.37088295 2.74847008 -28.09048131 2.69444811 -24.80989075 2.63699341 C-23.8433639 2.62702835 -22.87683704 2.61706329 -21.8810215 2.60679626 C-20.54408776 2.57938606 -20.54408776 2.57938606 -19.18014526 2.55142212 C-18.02675706 2.53369877 -18.02675706 2.53369877 -16.85006809 2.51561737 C-14.54416149 2.34966842 -14.54416149 2.34966842 -12.41228867 1.23610878 C-8.28195922 -0.22542976 -4.3497598 -0.02792043 0 0 Z " fill="#FB963D" transform="translate(573.5987091064453,773.7594909667969)"/>
<path d="M0 0 C272.25 0 544.5 0 825 0 C824.67 0.66 824.34 1.32 824 2 C823.16362881 1.99907821 822.32725761 1.99815641 821.46554184 1.99720669 C801.12688565 1.97513473 780.78823153 1.95858026 760.44956589 1.94818783 C750.61399658 1.94302871 740.77843527 1.93599331 730.94287109 1.92456055 C722.37148923 1.91460199 713.80011316 1.90814377 705.22872567 1.90591151 C700.68909505 1.9046064 696.14948098 1.90153311 691.60985565 1.89426994 C687.3385196 1.88749128 683.06720694 1.88538682 678.79586601 1.88689232 C677.22691407 1.88661682 675.65796135 1.88462263 674.08901405 1.88079453 C671.94902329 1.87582849 669.80912118 1.8770125 667.66912842 1.87974548 C666.47079754 1.87882369 665.27246666 1.8779019 664.03782272 1.87695217 C661.49375672 1.98000025 659.41662784 2.24825278 657 3 C657 2.34 657 1.68 657 1 C655.27950188 1.24398781 655.27950188 1.24398781 653.52424622 1.49290466 C649.20171398 2.03049745 644.96324964 2.13485914 640.61206055 2.11352539 C639.81591843 2.11367142 639.01977631 2.11381744 638.19950867 2.1139679 C635.59521662 2.1132771 632.99099815 2.10552228 630.38671875 2.09765625 C628.56687967 2.09578859 626.74704008 2.09436633 624.92720032 2.09336853 C620.15594067 2.08956647 615.38471188 2.07975885 610.61346436 2.06866455 C605.74947525 2.05841688 600.88548118 2.05385941 596.02148438 2.04882812 C587.48763424 2.0392741 578.95380373 2.02479848 570.41996765 2.00672913 C568.2799814 2.00251849 566.13999039 2 564 2 C562.02885928 1.99639041 560.05771862 1.99274739 558.08657837 1.9888916 C548.57089911 1.97033904 539.05522174 1.95731561 529.53952885 1.94818783 C524.27121717 1.94296025 519.00292157 1.93586046 513.73461914 1.92456055 C508.64131448 1.91370646 503.54802533 1.90771822 498.45471001 1.90512276 C496.51262607 1.90327416 494.57054298 1.89966438 492.62846565 1.89426994 C489.91383135 1.88702535 487.19926154 1.88601047 484.48461914 1.88647461 C483.68084839 1.88287933 482.87707764 1.87928406 482.0489502 1.87557983 C478.50881967 1.88214191 475.41342361 2.13787395 472 3 C469 3 469 3 465.3136434 2.50751591 C461.199025 1.97636404 457.12691691 1.86253504 452.98170567 1.87974548 C452.21202637 1.87889124 451.44234708 1.87803699 450.64934418 1.87715685 C448.07915808 1.87551705 445.50903809 1.8810071 442.93885803 1.88647461 C441.07395807 1.88675474 439.20905801 1.88659142 437.34415811 1.88602352 C432.22608756 1.88572823 427.10804026 1.89165929 421.98997509 1.89859343 C416.46773925 1.90497061 410.94550251 1.90553682 405.42326355 1.9067688 C395.85573517 1.90965506 386.28821451 1.91609373 376.72068977 1.92483521 C362.87786588 1.93738981 349.03504485 1.94346612 335.19221621 1.94776857 C312.72002009 1.95483581 290.24782754 1.96562521 267.77563477 1.97949219 C267.10340579 1.97990583 266.43117681 1.98031948 265.73857726 1.98074566 C254.830291 1.98746221 243.92200485 1.99436977 233.01371872 2.001302 C222.79405798 2.00779469 212.5743972 2.01421788 202.35473633 2.02050781 C201.68302284 2.0209224 201.01130934 2.02133699 200.3192409 2.02176414 C177.25427162 2.03597446 154.18930217 2.04625032 131.12432951 2.05341816 C117.31530811 2.05790048 103.5062974 2.0659429 89.697281 2.07856297 C80.23707474 2.08698545 70.77687095 2.09187871 61.31666119 2.09398818 C55.85739115 2.09533382 50.39813495 2.09834634 44.93886948 2.10574722 C39.94072017 2.11249742 34.94259087 2.11463203 29.94443744 2.11311162 C28.13699026 2.11338295 26.32954236 2.11535429 24.52209926 2.1192044 C22.06275319 2.12419971 19.60348341 2.12297894 17.14413548 2.12025452 C16.44490124 2.12316738 15.745667 2.12608024 15.02524385 2.12908137 C9.96489975 2.11395483 5.01794347 1.63982396 0 1 C0 0.67 0 0.34 0 0 Z " fill="#110504" transform="translate(112,839)"/>
<path d="M0 0 C2.49183715 0.23045893 4.59761887 -0.27256114 7.02734375 -0.8125 C7.61342911 -0.65982666 8.19951447 -0.50715332 8.80335999 -0.34985352 C11.54909334 0.31356386 14.03542822 0.29946386 16.86108398 0.28515625 C18.04386932 0.28189331 19.22665466 0.27863037 20.44528198 0.27526855 C21.7291983 0.26692993 23.01311462 0.25859131 24.3359375 0.25 C25.68832209 0.24524063 27.04070884 0.24106124 28.39309692 0.23742676 C31.263472 0.22917441 34.13382199 0.21848771 37.00418091 0.20581055 C44.41551954 0.1740073 51.82688001 0.16142196 59.23828125 0.15625 C59.96832178 0.15570114 60.69836231 0.15515228 61.45052528 0.15458679 C78.6534745 0.14754224 95.83771246 0.52028607 113.02734375 1.1875 C113.02734375 1.5175 113.02734375 1.8475 113.02734375 2.1875 C107.26106202 3.17849681 101.6814237 3.32838452 95.83781433 3.31448364 C94.82616803 3.31604363 93.81452173 3.31760362 92.77221948 3.31921089 C89.39004221 3.32319224 86.00791001 3.32004229 82.62573242 3.31689453 C80.19760614 3.31824987 77.76948006 3.32003054 75.34135437 3.32220459 C69.43471492 3.32629052 63.52808713 3.32569307 57.621448 3.32279195 C52.81811447 3.32053075 48.01478449 3.32022851 43.21145058 3.32131577 C42.52699665 3.321469 41.84254272 3.32162223 41.13734776 3.32178011 C39.74671981 3.32209985 38.35609186 3.32242406 36.96546391 3.3227527 C23.93164145 3.32560279 10.89782602 3.32232818 -2.13599529 3.31695233 C-13.30591771 3.31248773 -24.47582973 3.31325831 -35.64575195 3.31787109 C-48.62926663 3.32323035 -61.61277514 3.32532498 -74.59629077 3.32225883 C-75.98263244 3.3219403 -77.36897411 3.32162593 -78.75531578 3.32131577 C-79.43734309 3.32116149 -80.1193704 3.32100721 -80.82206521 3.32084826 C-85.61495287 3.31998694 -90.4078366 3.32143776 -95.20072365 3.32379532 C-101.66117971 3.32690336 -108.1216208 3.32466999 -114.58207512 3.31890106 C-116.94995211 3.31758157 -119.31783076 3.31795379 -121.68570709 3.32016373 C-124.92455209 3.32290722 -128.16333484 3.31945504 -131.4021759 3.31448364 C-132.33322783 3.31671436 -133.26427975 3.31894509 -134.22354537 3.32124341 C-140.19402438 3.30354024 -146.04364272 2.88716183 -151.97265625 2.1875 C-151.64265625 1.5275 -151.31265625 0.8675 -150.97265625 0.1875 C-149.86994605 0.18888269 -149.86994605 0.18888269 -148.74495888 0.19029331 C-130.87718404 0.21235459 -113.0094119 0.22891451 -95.14162636 0.23931217 C-86.50098813 0.24447373 -77.86035897 0.25151379 -69.21972656 0.26293945 C-61.69066626 0.27289054 -54.16161253 0.27935445 -46.63254583 0.28158849 C-42.64406672 0.28289488 -38.65560642 0.28597618 -34.66713333 0.29323006 C-30.91617453 0.29999696 -27.16524236 0.30211558 -23.41427803 0.30060768 C-22.03476759 0.30088371 -20.65525629 0.30288487 -19.27575111 0.30670547 C-17.39783999 0.31165308 -15.51991471 0.30989512 -13.64199829 0.30775452 C-12.06296691 0.30913721 -12.06296691 0.30913721 -10.4520359 0.31054783 C-1.07142183 -0.15499773 -1.07142183 -0.15499773 0 0 Z " fill="#ECA04D" transform="translate(426.97265625,833.8125)"/>
<path d="M0 0 C19.8 0 39.6 0 60 0 C60 0.33 60 0.66 60 1 C62.64 1.33 65.28 1.66 68 2 C68 2.33 68 2.66 68 3 C55.815608 4.21755263 43.60858756 4.29901829 31.375 4.5 C13.85724596 4.78569092 13.85724596 4.78569092 -3.6484375 5.46875 C-4.41048492 5.50609253 -5.17253235 5.54343506 -5.95767212 5.58190918 C-8.96579581 5.74822565 -11.89493009 5.9812592 -14.86260986 6.5105896 C-17.9933483 6.99896238 -20.91719728 7.12695704 -24.08349609 7.12939453 C-25.26688568 7.13254669 -26.45027527 7.13569885 -27.66952515 7.13894653 C-28.94131622 7.1369223 -30.2131073 7.13489807 -31.5234375 7.1328125 C-32.86984271 7.13348832 -34.21624779 7.13446064 -35.56265259 7.13571167 C-38.39204057 7.13718466 -41.22139696 7.13505295 -44.05078125 7.13037109 C-47.60060354 7.12477122 -51.1503492 7.12798172 -54.70016861 7.13382244 C-67.39606942 7.15142566 -80.07422313 7.13012819 -92.7578125 6.49609375 C-108.19571155 5.73084767 -123.64501533 5.8873401 -139.09729004 5.93133545 C-143.16120873 5.94176211 -147.22513415 5.94617348 -151.2890625 5.95117188 C-159.19272612 5.9617389 -167.09635805 5.97869182 -175 6 C-174.67 5.34 -174.34 4.68 -174 4 C-157.70986019 3.84583834 -141.41967787 3.69781326 -125.12941742 3.5570364 C-117.56508995 3.49152501 -110.00079007 3.42402723 -102.43652344 3.35180664 C-95.84133413 3.2888435 -89.24612343 3.22965481 -82.65086031 3.17494446 C-79.16071655 3.14586193 -75.670612 3.11492613 -72.18052673 3.07946587 C-68.27859608 3.03989201 -64.3766222 3.00874722 -60.47460938 2.97827148 C-59.32517853 2.96532547 -58.17574768 2.95237946 -56.9914856 2.93904114 C-51.21349791 2.90106987 -45.7151557 3.15449528 -40 4 C-37.50779463 4.05248577 -37.50779463 4.05248577 -35.2578125 3.87890625 C-34.01197388 3.80627563 -34.01197388 3.80627563 -32.7409668 3.73217773 C-31.87769775 3.67618408 -31.01442871 3.62019043 -30.125 3.5625 C-20.40458423 3.00885478 -10.73347088 2.89303878 -1 3 C-0.67 2.01 -0.34 1.02 0 0 Z " fill="#FEAE61" transform="translate(313,774)"/>
<path d="M0 0 C1.32 0.66 2.64 1.32 4 2 C3.34 2 2.68 2 2 2 C0.81899221 5.69064935 0.93471848 9.14839027 1 13 C1.12676056 20.47887324 1.12676056 20.47887324 0 24 C0.66 24.33 1.32 24.66 2 25 C1.67 25.33 1.34 25.66 1 26 C0.91209025 28.29151417 0.89305962 30.58572524 0.90234375 32.87890625 C0.9037587 33.5655687 0.90517365 34.25223114 0.90663147 34.95970154 C0.91224521 37.16067801 0.92479993 39.36155409 0.9375 41.5625 C0.94251324 43.05143083 0.94707645 44.54036324 0.95117188 46.02929688 C0.96221907 49.68623075 0.97949287 53.34310558 1 57 C1.72424636 56.99815641 2.44849272 56.99631283 3.19468594 56.99441338 C20.93699847 56.94996153 38.67929659 56.91701224 56.42165279 56.89637566 C65.00223242 56.88612698 73.58277455 56.87219168 82.16333008 56.84912109 C89.65489006 56.82898835 97.14642284 56.81623722 104.63800913 56.81182301 C108.59315367 56.80924872 112.54822051 56.80333761 116.50333977 56.78853989 C134.75536511 56.7228214 152.82148144 57.12810143 171 59 C171 59.33 171 59.66 171 60 C113.58 60 56.16 60 -3 60 C-2 4 -2 4 0 0 Z " fill="#F2B166" transform="translate(114,777)"/>
<path d="M0 0 C0 0.33 0 0.66 0 1 C-0.96301025 1.02505615 -1.92602051 1.0501123 -2.91821289 1.07592773 C-6.51712617 1.17064271 -10.115875 1.27070252 -13.71459961 1.37231445 C-15.26729464 1.41542245 -16.82002974 1.45711268 -18.37280273 1.49731445 C-20.61454303 1.5556069 -22.85608604 1.61912578 -25.09765625 1.68359375 C-26.12621483 1.70866249 -26.12621483 1.70866249 -27.17555237 1.73423767 C-30.25246721 1.82720015 -33.22056528 2.03424014 -36.26420593 2.50672913 C-40.09398804 3.0124101 -43.73493244 3.11319576 -47.59667969 3.09765625 C-48.32130402 3.09619598 -49.04592834 3.09473572 -49.79251099 3.0932312 C-51.35460857 3.08944778 -52.91670196 3.08335542 -54.47878265 3.07516479 C-56.96073769 3.06229854 -59.44263867 3.0558589 -61.92462158 3.05102539 C-68.09044181 3.03771559 -74.2562106 3.01356718 -80.42199707 2.98962402 C-85.63569103 2.96978009 -90.84936529 2.95418425 -96.06308746 2.94406128 C-98.49072344 2.93764833 -100.91827676 2.92513942 -103.34588623 2.91235352 C-110.61668761 2.88939541 -117.7819577 2.98750567 -125.01202393 3.88110352 C-127 4 -127 4 -129 3 C-131.32416296 2.91413191 -133.65083307 2.89288957 -135.9765625 2.90234375 C-136.66181 2.9037587 -137.3470575 2.90517365 -138.05307007 2.90663147 C-140.24375761 2.91223325 -142.4343433 2.92478594 -144.625 2.9375 C-146.10937352 2.94251478 -147.59374865 2.94707772 -149.078125 2.95117188 C-152.71878315 2.96220323 -156.35938164 2.97946901 -160 3 C-160 2.67 -160 2.34 -160 2 C-154.13152221 0.99393292 -148.41409565 0.83001449 -142.46704102 0.79467773 C-141.42811707 0.78477814 -140.38919312 0.77487854 -139.31878662 0.76467896 C-135.88051607 0.73310092 -132.44223278 0.70826237 -129.00390625 0.68359375 C-126.57624508 0.66296342 -124.148587 0.64196566 -121.72093201 0.62062073 C-116.61076708 0.5766521 -111.50059019 0.53577139 -106.39038086 0.49731445 C-99.96644411 0.44892849 -93.54256827 0.39517932 -87.1186924 0.33934593 C-58.07871504 0.08787978 -29.04107986 -0.07351763 0 0 Z " fill="#FE9D42" transform="translate(545,777)"/>
<path d="M0 0 C0.66 1.32 1.32 2.64 2 4 C-15.82 4 -33.64 4 -52 4 C-52.66 2.68 -53.32 1.36 -54 0 C-47.1133683 -0.16850263 -40.22657443 -0.32834082 -33.33959961 -0.48217773 C-30.99710545 -0.53552311 -28.65465547 -0.59084648 -26.31225586 -0.64819336 C-22.94394453 -0.73031246 -19.57553804 -0.80530007 -16.20703125 -0.87890625 C-15.16102249 -0.90594131 -14.11501373 -0.93297638 -13.03730774 -0.96083069 C-12.05666855 -0.98092697 -11.07602936 -1.00102325 -10.06567383 -1.02172852 C-9.20629715 -1.04171402 -8.34692047 -1.06169952 -7.46150208 -1.08229065 C-4.7905753 -0.99299871 -2.54960971 -0.82687084 0 0 Z " fill="#070907" transform="translate(389,211)"/>
<path d="M0 0 C0.99 0 1.98 0 3 0 C3.04898438 1.07636719 3.09796875 2.15273438 3.1484375 3.26171875 C3.59802605 12.30021377 4.40231891 21.08090653 6 30 C4.02 30.33 2.04 30.66 0 31 C0 20.77 0 10.54 0 0 Z " fill="#101414" transform="translate(149,371)"/>
<path d="M0 0 C2.3894189 2.3894189 2.33790864 3.19925816 2.6328125 6.48046875 C2.71700439 7.39030518 2.80119629 8.3001416 2.88793945 9.23754883 C2.96616943 10.21103271 3.04439941 11.1845166 3.125 12.1875 C3.2077417 13.17967529 3.2904834 14.17185059 3.37573242 15.1940918 C5.17763815 38.07810939 5.17763815 38.07810939 1 48 C0.67 48 0.34 48 0 48 C0 32.16 0 16.32 0 0 Z " fill="#5B5C5B" transform="translate(522,516)"/>
<path d="M0 0 C21.285 1.98 21.285 1.98 43 4 C43 4.33 43 4.66 43 5 C33.14183749 5.30384747 23.72911448 4.39879438 14 3 C14 3.66 14 4.32 14 5 C7.07 4.505 7.07 4.505 0 4 C0 2.68 0 1.36 0 0 Z " fill="#D3D6D1" transform="translate(291,397)"/>
<path d="M0 0 C0.66 1.32 1.32 2.64 2 4 C1.34 4 0.68 4 0 4 C-0.33 4.99 -0.66 5.98 -1 7 C-1.99 7 -2.98 7 -4 7 C-4.33 7.66 -4.66 8.32 -5 9 C-5.94123714 10.11877588 -6.90216648 11.22108727 -7.875 12.3125 C-10.26521617 15.05895031 -12.24974056 17.79119103 -14 21 C-14.66 20.34 -15.32 19.68 -16 19 C-16.99 19 -17.98 19 -19 19 C-12.73 12.73 -6.46 6.46 0 0 Z " fill="#171816" transform="translate(915,618)"/>
<path d="M0 0 C6.91663627 1.09890483 13.42736799 2.56569185 20 5 C19.67 5.66 19.34 6.32 19 7 C12.73 6.34 6.46 5.68 0 5 C0 3.35 0 1.7 0 0 Z " fill="#161618" transform="translate(389,297)"/>
<path d="M0 0 C2.4375 0.875 2.4375 0.875 4.4375 4.875 C-14.8675 4.38 -14.8675 4.38 -34.5625 3.875 C-34.5625 3.545 -34.5625 3.215 -34.5625 2.875 C-33.26832153 2.845271 -33.26832153 2.845271 -31.94799805 2.81494141 C-28.74413044 2.73680356 -25.54064106 2.65010918 -22.3371582 2.55761719 C-20.95118093 2.5193565 -19.56510535 2.48449844 -18.17895508 2.453125 C-16.1854836 2.40741301 -14.19233086 2.34841075 -12.19921875 2.2890625 C-10.99998779 2.2576416 -9.80075684 2.2262207 -8.56518555 2.19384766 C-5.05065932 1.82064892 -3.48754588 -0.17012419 0 0 Z " fill="#21231F" transform="translate(386.5625,210.125)"/>
<path d="M0 0 C0 0.66 0 1.32 0 2 C0.99 2.66 1.98 3.32 3 4 C-3.93 5.485 -3.93 5.485 -11 7 C-11.33 6.01 -11.66 5.02 -12 4 C-11.01 3.34 -10.02 2.68 -9 2 C-9 1.34 -9 0.68 -9 0 C-5.67465243 -1.10844919 -3.37817425 -0.84454356 0 0 Z " fill="#090B0D" transform="translate(770,211)"/>
<path d="M0 0 C0.66 0.33 1.32 0.66 2 1 C-1.72244043 5.55998953 -5.54920305 9.47932259 -10.03125 13.2890625 C-12.83405016 15.72482931 -15.40764974 18.34284098 -18 21 C-18.66 20.67 -19.32 20.34 -20 20 C-13.80204214 12.74707059 -7.44008593 5.98836185 0 0 Z " fill="#DADBDB" transform="translate(205,269)"/>
<path d="M0 0 C-0.33 0.66 -0.66 1.32 -1 2 C-1.66 2 -2.32 2 -3 2 C-3 2.66 -3 3.32 -3 4 C-9.6 4 -16.2 4 -23 4 C-19.06414328 2.03207164 -16.37223203 1.45453707 -12.0625 0.875 C-10.85722656 0.70742188 -9.65195312 0.53984375 -8.41015625 0.3671875 C-5.56446373 0.06077845 -2.85651173 -0.07588456 0 0 Z " fill="#545957" transform="translate(347,700)"/>
<path d="M0 0 C0.33 1.32 0.66 2.64 1 4 C-0.41005725 5.15395711 -1.82833458 6.29787466 -3.25 7.4375 C-4.43335938 8.39462891 -4.43335938 8.39462891 -5.640625 9.37109375 C-8.90831087 11.62709542 -11.07059407 12 -15 12 C-13.25084555 10.56147125 -11.50064205 9.12421802 -9.75 7.6875 C-8.77546875 6.88699219 -7.8009375 6.08648438 -6.796875 5.26171875 C-4.5633738 3.45557742 -2.31312737 1.70180085 0 0 Z " fill="#2A2C29" transform="translate(895,638)"/>
<path d="M0 0 C4.33304076 0.64465202 7.86672065 2.18925122 11.8125 4.0625 C12.97394531 4.61035156 14.13539063 5.15820312 15.33203125 5.72265625 C16.21246094 6.14417969 17.09289062 6.56570313 18 7 C17.67 7.66 17.34 8.32 17 9 C14.61435923 8.42415568 12.33317216 7.77772405 10 7 C10 6.34 10 5.68 10 5 C8.9171875 4.814375 8.9171875 4.814375 7.8125 4.625 C5.04278106 4.0095069 2.6029646 3.11555626 0 2 C0 1.34 0 0.68 0 0 Z " fill="#231C25" transform="translate(409,303)"/>
<path d="M0 0 C0.33 0.99 0.66 1.98 1 3 C0.360625 3.268125 -0.27875 3.53625 -0.9375 3.8125 C-3.33131686 4.88667752 -3.33131686 4.88667752 -4 8 C-4.66 8 -5.32 8 -6 8 C-6.33 9.32 -6.66 10.64 -7 12 C-8.65 12 -10.3 12 -12 12 C-3.26213592 1.63106796 -3.26213592 1.63106796 0 0 Z " fill="#282928" transform="translate(505,308)"/>
<path d="M0 0 C0.33 0.99 0.66 1.98 1 3 C-5.08233706 2.32418477 -11.01314152 1.26361972 -17 0 C-17 -0.33 -17 -0.66 -17 -1 C-11.13632225 -2.06612323 -5.6113009 -2.40659732 0 0 Z " fill="#323433" transform="translate(253,619)"/>
<path d="M0 0 C0.99 0 1.98 0 3 0 C2.7168444 2.08450717 2.42314331 4.16758367 2.125 6.25 C1.96257813 7.41015625 1.80015625 8.5703125 1.6328125 9.765625 C1 13 1 13 -1 17 C-1.33 14.03 -1.66 11.06 -2 8 C-1.34 8 -0.68 8 0 8 C-0.2784375 6.2984375 -0.2784375 6.2984375 -0.5625 4.5625 C-0.7790625 2.7990625 -0.7790625 2.7990625 -1 1 C-0.67 0.67 -0.34 0.34 0 0 Z " fill="#464648" transform="translate(568,454)"/>
<path d="M0 0 C3.63 1.98 7.26 3.96 11 6 C10.67 6.66 10.34 7.32 10 8 C9.01 8 8.02 8 7 8 C7 7.34 7 6.68 7 6 C5.906875 5.896875 4.81375 5.79375 3.6875 5.6875 C0.14440371 5.02692273 -0.93243723 4.7972908 -3 2 C-2.01 2 -1.02 2 0 2 C0 1.34 0 0.68 0 0 Z " fill="#161B19" transform="translate(433,314)"/>
<path d="M0 0 C2.31 0 4.62 0 7 0 C7 0.66 7 1.32 7 2 C9.64 2.33 12.28 2.66 15 3 C14.67 3.66 14.34 4.32 14 5 C8.76119922 4.44854729 4.02649303 3.57077907 -1 2 C-0.67 1.34 -0.34 0.68 0 0 Z " fill="#121819" transform="translate(276,391)"/>
<path d="M0 0 C0.66 0.33 1.32 0.66 2 1 C1.24172908 2.17487036 0.46792245 3.33972592 -0.3125 4.5 C-0.74175781 5.1496875 -1.17101562 5.799375 -1.61328125 6.46875 C-2.07089844 6.9740625 -2.52851562 7.479375 -3 8 C-3.99 8 -4.98 8 -6 8 C-6.33 8.99 -6.66 9.98 -7 11 C-8.65 10.67 -10.3 10.34 -12 10 C-8.40945767 6.11024581 -4.26101118 3.10267805 0 0 Z " fill="#333633" transform="translate(878,651)"/>
<path d="M0 0 C2.01635978 3.02453967 3.03246502 5.63075348 4.1875 9.0625 C4.55230469 10.12597656 4.91710937 11.18945312 5.29296875 12.28515625 C6 15 6 15 5 17 C4.566875 16.071875 4.13375 15.14375 3.6875 14.1875 C2.29910831 11.04355533 2.29910831 11.04355533 0.25 9.625 C-1.41058248 7.46624278 -1.01770763 6.46811344 -0.6875 3.8125 C-0.460625 2.554375 -0.23375 1.29625 0 0 Z " fill="#575355" transform="translate(568,572)"/>
<path d="M0 0 C3.45195767 1.4258086 5.1014256 3.09746334 7.25 6.125 C8.03117188 7.21167969 8.03117188 7.21167969 8.828125 8.3203125 C9.40820312 9.15175781 9.40820312 9.15175781 10 10 C8.35 10 6.7 10 5 10 C5 9.01 5 8.02 5 7 C4.34 7 3.68 7 3 7 C2.67 5.68 2.34 4.36 2 3 C1.34 3 0.68 3 0 3 C0 2.01 0 1.02 0 0 Z " fill="#232626" transform="translate(848,305)"/>
<path d="M0 0 C0 3.61885438 -0.6019779 4.05871597 -3.0625 6.5625 C-6.55620605 9.94212585 -9.26036213 11.12945427 -14 12 C-9.73412126 7.45890328 -4.96387672 3.75264754 0 0 Z " fill="#333736" transform="translate(476,644)"/>
<path d="M0 0 C0 0.99 0 1.98 0 3 C-3 4 -6 5 -9 6 C-9.33 6.66 -9.66 7.32 -10 8 C-11.65 8 -13.3 8 -15 8 C-12.61753661 5.31874582 -10.1454496 3.88576541 -6.9375 2.3125 C-5.62072266 1.65701172 -5.62072266 1.65701172 -4.27734375 0.98828125 C-2 0 -2 0 0 0 Z " fill="#272429" transform="translate(296,308)"/>
<path d="M0 0 C1.21333397 2.42666795 1 4.33499722 1 7 C0.34 7 -0.32 7 -1 7 C-1 7.99 -1 8.98 -1 10 C-2.32 10 -3.64 10 -5 10 C-5 10.66 -5 11.32 -5 12 C-5.66 11.67 -6.32 11.34 -7 11 C-4.69 7.37 -2.38 3.74 0 0 Z " fill="#202322" transform="translate(704,372)"/>
<path d="M0 0 C1 2 1 2 0.25 4.5625 C-1 7 -1 7 -4 8 C-4 8.99 -4 9.98 -4 11 C-5.65 11.33 -7.3 11.66 -9 12 C-6 8 -3 4 0 0 Z " fill="#2D312F" transform="translate(498,620)"/>
<path d="M0 0 C0.66 1.32 1.32 2.64 2 4 C1.34 4 0.68 4 0 4 C-0.33 4.99 -0.66 5.98 -1 7 C-1.99 7 -2.98 7 -4 7 C-4.33 7.66 -4.66 8.32 -5 9 C-7.0625 9.625 -7.0625 9.625 -9 10 C-8.06409496 8.8944811 -7.12620142 7.79064547 -6.1875 6.6875 C-5.66542969 6.07261719 -5.14335938 5.45773437 -4.60546875 4.82421875 C-3.12827531 3.14575321 -1.59960869 1.56117966 0 0 Z " fill="#2C2D2B" transform="translate(915,618)"/>
<path d="M0 0 C1.32 1.65 2.64 3.3 4 5 C2.1746875 5.2165625 2.1746875 5.2165625 0.3125 5.4375 C-2.82670377 5.82780953 -5.9075134 6.32351856 -9 7 C-6.19195732 4.03595495 -3.81684226 1.55500981 0 0 Z " fill="#232126" transform="translate(278,317)"/>
<path d="M0 0 C5.19209404 -0.21192221 9.126739 0.4087311 14 2 C13.67 2.66 13.34 3.32 13 4 C9.37 3.67 5.74 3.34 2 3 C2 2.34 2 1.68 2 1 C1.34 0.67 0.68 0.34 0 0 Z " fill="#111011" transform="translate(395,300)"/>
<path d="M0 0 C0.78503906 0.08894531 1.57007813 0.17789063 2.37890625 0.26953125 C3.55259766 0.38361328 3.55259766 0.38361328 4.75 0.5 C7.28075558 1.17216146 8.28059694 2.10080857 9.94140625 4.08203125 C4.72161497 4.26202405 0.86877644 4.05297933 -4.05859375 2.08203125 C-2.05859375 0.08203125 -2.05859375 0.08203125 0 0 Z " fill="#191A18" transform="translate(255.05859375,618.91796875)"/>
<path d="M0 0 C1.89600369 0.31146472 3.79179587 0.62421717 5.6875 0.9375 C6.74324219 1.11152344 7.79898437 1.28554688 8.88671875 1.46484375 C11.60249604 1.93167121 14.30124235 2.44422616 17 3 C17 3.33 17 3.66 17 4 C12.38 4 7.76 4 3 4 C3 3.34 3 2.68 3 2 C2.01 1.67 1.02 1.34 0 1 C0 0.67 0 0.34 0 0 Z " fill="#2C2E2C" transform="translate(249,474)"/>
<path d="M0 0 C4.09305456 1.65296434 7.58983503 3.13546142 11 6 C9.02 6.33 7.04 6.66 5 7 C5 5.68 5 4.36 5 3 C4.34 3 3.68 3 3 3 C2.67 3.99 2.34 4.98 2 6 C1.34 5.67 0.68 5.34 0 5 C0 3.35 0 1.7 0 0 Z " fill="#1F2021" transform="translate(200,456)"/>
<path d="M0 0 C0.33 0 0.66 0 1 0 C1.05807043 3.10408807 1.09361914 6.2080364 1.125 9.3125 C1.15013672 10.63411133 1.15013672 10.63411133 1.17578125 11.98242188 C1.18222656 12.82998047 1.18867187 13.67753906 1.1953125 14.55078125 C1.21102295 15.72120972 1.21102295 15.72120972 1.22705078 16.9152832 C1 19 1 19 -1 22 C-0.98839844 21.30132813 -0.97679687 20.60265625 -0.96484375 19.8828125 C-0.95582031 18.97273437 -0.94679688 18.06265625 -0.9375 17.125 C-0.92589844 16.22007812 -0.91429687 15.31515625 -0.90234375 14.3828125 C-0.83750743 11.9831415 -0.83750743 11.9831415 -2 10 C-1.66015625 7.6171875 -1.66015625 7.6171875 -1.0625 4.875 C-0.86785156 3.96492187 -0.67320312 3.05484375 -0.47265625 2.1171875 C-0.31667969 1.41851563 -0.16070313 0.71984375 0 0 Z " fill="#E1E0DD" transform="translate(936,567)"/>
<path d="M0 0 C0.66 0.33 1.32 0.66 2 1 C2 2.32 2 3.64 2 5 C-1.3 5.33 -4.6 5.66 -8 6 C-6.32169152 2.64338305 -3.29210653 1.67493139 0 0 Z " fill="#2E322D" transform="translate(855,667)"/>
<path d="M0 0 C4 7.71428571 4 7.71428571 4 12 C2.68 12 1.36 12 0 12 C0.33 10.35 0.66 8.7 1 7 C0.34 7 -0.32 7 -1 7 C-0.67 4.69 -0.34 2.38 0 0 Z " fill="#202320" transform="translate(110,623)"/>
<path d="M0 0 C0.66 0.66 1.32 1.32 2 2 C1.34 2.66 0.68 3.32 0 4 C-0.4021875 5.2065625 -0.4021875 5.2065625 -0.8125 6.4375 C-2.28960796 9.62494348 -3.91275861 10.45637931 -7 12 C-5.44298069 7.32894208 -2.91552627 3.91294315 0 0 Z " fill="#353737" transform="translate(508,605)"/>
<path d="M0 0 C1.258125 -0.04125 2.51625 -0.0825 3.8125 -0.125 C4.52019531 -0.14820313 5.22789062 -0.17140625 5.95703125 -0.1953125 C8 0 8 0 11 2 C7.37 2.66 3.74 3.32 0 4 C0 2.68 0 1.36 0 0 Z " fill="#222422" transform="translate(308,216)"/>
<path d="M0 0 C-1.2065625 0.6496875 -1.2065625 0.6496875 -2.4375 1.3125 C-5.27846354 2.80474002 -5.27846354 2.80474002 -6 6 C-6.66 6 -7.32 6 -8 6 C-8 5.34 -8 4.68 -8 4 C-9.65 4.33 -11.3 4.66 -13 5 C-11.5977422 2.1954844 -9.93929378 1.9557882 -7.0625 0.8125 C-6.16660156 0.44769531 -5.27070313 0.08289063 -4.34765625 -0.29296875 C-2 -1 -2 -1 0 0 Z " fill="#4D504E" transform="translate(424,678)"/>
<path d="M0 0 C0.33 0 0.66 0 1 0 C1 3.63 1 7.26 1 11 C0.01 11.495 0.01 11.495 -1 12 C-2.13350534 14.01669827 -2.13350534 14.01669827 -3 16 C-3.33 15.34 -3.66 14.68 -4 14 C-3.27720683 12.02874591 -2.54868546 10.05903942 -1.76953125 8.109375 C-0.79779817 5.44574119 -0.3509066 2.80725279 0 0 Z " fill="#373638" transform="translate(519,574)"/>
<path d="M0 0 C0.66 0.33 1.32 0.66 2 1 C-0.97 3.97 -3.94 6.94 -7 10 C-7.66 9.67 -8.32 9.34 -9 9 C-8.06725891 7.87105124 -7.12859878 6.74699124 -6.1875 5.625 C-5.66542969 4.99851562 -5.14335938 4.37203125 -4.60546875 3.7265625 C-3 2 -3 2 0 0 Z " fill="#C8C9C8" transform="translate(126,574)"/>
<path d="M0 0 C0.99 0.33 1.98 0.66 3 1 C0.03 3.64 -2.94 6.28 -6 9 C-6.33 8.01 -6.66 7.02 -7 6 C-5.8125 3.8125 -5.8125 3.8125 -4 2 C-2.68 2 -1.36 2 0 2 C0 1.34 0 0.68 0 0 Z " fill="#272B2A" transform="translate(843,566)"/>
<path d="M0 0 C-6.4 4.06153846 -6.4 4.06153846 -9.4375 3.75 C-9.953125 3.5025 -10.46875 3.255 -11 3 C-11 2.34 -11 1.68 -11 1 C-3.57142857 -1.42857143 -3.57142857 -1.42857143 0 0 Z " fill="#222626" transform="translate(328,299)"/>
<path d="M0 0 C0.33 0.66 0.66 1.32 1 2 C0.67 2.99 0.34 3.98 0 5 C-0.66 5 -1.32 5 -2 5 C-2.33 6.32 -2.66 7.64 -3 9 C-4.32 9.33 -5.64 9.66 -7 10 C-2.85714286 2.42857143 -2.85714286 2.42857143 0 0 Z " fill="#222225" transform="translate(720,350)"/>
<path d="M0 0 C0.33 0.66 0.66 1.32 1 2 C0.360625 2.4125 -0.27875 2.825 -0.9375 3.25 C-3.20990931 5.17810487 -3.60196439 6.11424181 -4 9 C-5.65 8.67 -7.3 8.34 -9 8 C-6.14723863 5.06799526 -3.34920216 2.35684596 0 0 Z " fill="#201F21" transform="translate(761,310)"/>
<path d="M0 0 C0.33 0.99 0.66 1.98 1 3 C-0.41750563 2.88490339 -1.83401169 2.75746342 -3.25 2.625 C-4.03890625 2.55539063 -4.8278125 2.48578125 -5.640625 2.4140625 C-8.085877 1.98492887 -9.84836903 1.21399362 -12 0 C-7.91556885 -1.53166168 -4.20544343 -0.63081652 0 0 Z " fill="#2E3230" transform="translate(419,217)"/>
<path d="M0 0 C0.33 0.66 0.66 1.32 1 2 C0.06553465 4.03144641 -0.93224776 6.03533587 -2 8 C-2.66 8 -3.32 8 -4 8 C-4 8.66 -4 9.32 -4 10 C-5.32 10.33 -6.64 10.66 -8 11 C-5.50127818 7.1626772 -2.9156164 3.54039134 0 0 Z " fill="#2D2E2C" transform="translate(926,605)"/>
<path d="M0 0 C2.64465038 3.1254959 3.84414715 6.08788267 5 10 C4.01 9.67 3.02 9.34 2 9 C2 8.01 2 7.02 2 6 C1.01 6 0.02 6 -1 6 C-0.67 4.02 -0.34 2.04 0 0 Z " fill="#3B3F3B" transform="translate(579,602)"/>
<path d="M0 0 C1.58468677 0.45363171 3.16769924 0.91311452 4.75 1.375 C5.63171875 1.63023437 6.5134375 1.88546875 7.421875 2.1484375 C10 3 10 3 14 5 C10.7 5 7.4 5 4 5 C3.67 4.34 3.34 3.68 3 3 C2.01 2.67 1.02 2.34 0 2 C0 1.34 0 0.68 0 0 Z " fill="#151517" transform="translate(445,322)"/>
<path d="M0 0 C-1.26691507 0.67408308 -2.53870749 1.33900497 -3.8125 2 C-4.52019531 2.37125 -5.22789062 2.7425 -5.95703125 3.125 C-8 4 -8 4 -11 4 C-11.66 3.34 -12.32 2.68 -13 2 C-11.5882217 1.46605821 -10.17029756 0.94834896 -8.75 0.4375 C-7.96109375 0.14746094 -7.1721875 -0.14257812 -6.359375 -0.44140625 C-3.80896548 -1.04522837 -2.44677771 -0.8473932 0 0 Z " fill="#303231" transform="translate(317,302)"/>
<path d="M0 0 C-0.33 1.32 -0.66 2.64 -1 4 C-3.97 3.01 -6.94 2.02 -10 1 C-10 0.67 -10 0.34 -10 0 C-6.30458414 -0.95024979 -3.69541586 -0.95024979 0 0 Z " fill="#252123" transform="translate(468,232)"/>
<path d="M0 0 C1.99097846 2.98646769 2.94124926 5.59687262 4 9 C2.68 9 1.36 9 0 9 C-1.125 2.25 -1.125 2.25 0 0 Z " fill="#1F1F1F" transform="translate(158,410)"/>
<path d="M0 0 C-1 2 -1 2 -4.3125 3.25 C-8.21941034 4.04462583 -8.78410702 3.9025592 -12 2 C-10.37787941 1.47026689 -8.75218416 0.95146893 -7.125 0.4375 C-6.22007812 0.14746094 -5.31515625 -0.14257812 -4.3828125 -0.44140625 C-2 -1 -2 -1 0 0 Z " fill="#313432" transform="translate(488,324)"/>
<path d="M0 0 C2.64752004 2.57784846 4.94432065 4.91648098 7 8 C4.625 7.6875 4.625 7.6875 2 7 C0 4 0 4 0 0 Z " fill="#212521" transform="translate(127,654)"/>
<path d="M0 0 C1.98 0 3.96 0 6 0 C6.66 1.98 7.32 3.96 8 6 C4.63408134 4.55746343 2.48952921 2.66735273 0 0 Z " fill="#292D2C" transform="translate(206,602)"/>
<path d="M0 0 C1.32 0.33 2.64 0.66 4 1 C3.25 5.75 3.25 5.75 1 8 C0.67 5.36 0.34 2.72 0 0 Z " fill="#2F2E32" transform="translate(599,366)"/>
<path d="M0 0 C4.95 1.98 4.95 1.98 10 4 C10 4.33 10 4.66 10 5 C7.36 5 4.72 5 2 5 C1.34 3.35 0.68 1.7 0 0 Z " fill="#1F1E27" transform="translate(876,333)"/>
<path d="M0 0 C0.99 0.66 1.98 1.32 3 2 C2.01 2 1.02 2 0 2 C0 2.66 0 3.32 0 4 C-0.99 4.33 -1.98 4.66 -3 5 C-3.33 5.99 -3.66 6.98 -4 8 C-4.99 7.67 -5.98 7.34 -7 7 C-2.25 1.125 -2.25 1.125 0 0 Z " fill="#171B18" transform="translate(751,318)"/>
<path d="M0 0 C0.33 0 0.66 0 1 0 C1.33 2.31 1.66 4.62 2 7 C2.66 7 3.32 7 4 7 C3.67 9.31 3.34 11.62 3 14 C2.67 14 2.34 14 2 14 C0.66416101 9.15758367 -0.25328119 5.06562383 0 0 Z " fill="#ABACA6" transform="translate(564,554)"/>
<path d="M0 0 C0.33 0.66 0.66 1.32 1 2 C-0.92576115 4.43929746 -2.80090595 6.80090595 -5 9 C-5.33 7.68 -5.66 6.36 -6 5 C-4.68 4.34 -3.36 3.68 -2 3 C-2 2.34 -2 1.68 -2 1 C-1.34 0.67 -0.68 0.34 0 0 Z " fill="#35363B" transform="translate(631,321)"/>
<path d="M0 0 C0.33 0.99 0.66 1.98 1 3 C-0.98 4.98 -2.96 6.96 -5 9 C-5.66 8.67 -6.32 8.34 -7 8 C-5.625 6 -5.625 6 -4 4 C-3.34 4 -2.68 4 -2 4 C-1.34 2.68 -0.68 1.36 0 0 Z " fill="#D1D2D3" transform="translate(655,292)"/>
<path d="M0 0 C-2.64 1.98 -5.28 3.96 -8 6 C-7.75 3.625 -7.75 3.625 -7 1 C-4.12732844 -1.10662581 -3.46720491 -1.15573497 0 0 Z " fill="#1A1C20" transform="translate(692,257)"/>
<path d="M0 0 C3.465 1.485 3.465 1.485 7 3 C5.3125 4.125 5.3125 4.125 3 5 C0.25 4.125 0.25 4.125 -2 3 C-1.34 2.01 -0.68 1.02 0 0 Z " fill="#141915" transform="translate(648,676)"/>
<path d="M0 0 C2.00720923 0.28674418 4.0085944 0.61866701 6 1 C6 1.66 6 2.32 6 3 C4.1875 3.6875 4.1875 3.6875 2 4 C0.25 2.5625 0.25 2.5625 -1 1 C-0.67 0.67 -0.34 0.34 0 0 Z " fill="#1D2220" transform="translate(468,432)"/>
<path d="M0 0 C0.66 1.32 1.32 2.64 2 4 C1.360625 4.103125 0.72125 4.20625 0.0625 4.3125 C-0.618125 4.539375 -1.29875 4.76625 -2 5 C-2.33 5.99 -2.66 6.98 -3 8 C-3.66 7.67 -4.32 7.34 -5 7 C-3.35 4.69 -1.7 2.38 0 0 Z " fill="#252725" transform="translate(710,363)"/>
<path d="M0 0 C1.98 1.65 3.96 3.3 6 5 C3.92446352 5.5534764 2.15634036 6 0 6 C0 4.02 0 2.04 0 0 Z " fill="#2F3030" transform="translate(414,505)"/>
<path d="M0 0 C0.99 0.66 1.98 1.32 3 2 C3 2.66 3 3.32 3 4 C2.34 4 1.68 4 1 4 C1 4.66 1 5.32 1 6 C0.01 5.67 -0.98 5.34 -2 5 C-1.34 3.35 -0.68 1.7 0 0 Z " fill="#161818" transform="translate(687,402)"/>
<path d="M0 0 C3.465 1.98 3.465 1.98 7 4 C6.67 4.66 6.34 5.32 6 6 C4.68 6 3.36 6 2 6 C1.34 4.02 0.68 2.04 0 0 Z " fill="#1A1A22" transform="translate(869,328)"/>
<path d="M0 0 C5.75 0.75 5.75 0.75 8 3 C5.6875 3.625 5.6875 3.625 3 4 C2.01 3.34 1.02 2.68 0 2 C0 1.34 0 0.68 0 0 Z " fill="#161619" transform="translate(419,308)"/>
<path d="M0 0 C-2.46278801 2.46278801 -4.70676982 2.99771255 -8 4 C-8.33 3.34 -8.66 2.68 -9 2 C-3.375 -1.125 -3.375 -1.125 0 0 Z " fill="#1F1C1E" transform="translate(781,301)"/>
<path d="M0 0 C2.31 0.66 4.62 1.32 7 2 C6.67 3.32 6.34 4.64 6 6 C3.97945196 4.35830472 1.97956942 2.69088222 0 1 C0 0.67 0 0.34 0 0 Z " fill="#242322" transform="translate(912,234)"/>
<path d="M0 0 C1.32 0 2.64 0 4 0 C3.25 4.75 3.25 4.75 1 7 C0.67 4.69 0.34 2.38 0 0 Z " fill="#EEEFE9" transform="translate(931,589)"/>
<path d="M0 0 C0 0.99 0 1.98 0 3 C-2.97 2.67 -5.94 2.34 -9 2 C-9 1.67 -9 1.34 -9 1 C-5.846632 0.29925156 -3.27275026 0 0 0 Z " fill="#1B2525" transform="translate(406,407)"/>
<path d="M0 0 C1.125 3.75 1.125 3.75 0 6 C0.66 6 1.32 6 2 6 C2 6.66 2 7.32 2 8 C1.01 8 0.02 8 -1 8 C-1.33 8.66 -1.66 9.32 -2 10 C-1.54177532 6.53058454 -1.10868317 3.32604951 0 0 Z " fill="#C7C8C7" transform="translate(157,339)"/>
<path d="M0 0 C1.65 0 3.3 0 5 0 C5 1.98 5 3.96 5 6 C4.34 6 3.68 6 3 6 C2.01 4.02 1.02 2.04 0 0 Z " fill="#0E100E" transform="translate(925,249)"/>
<path d="M0 0 C2.97 0.495 2.97 0.495 6 1 C3.64046906 3.35953094 2.22104383 3.49141413 -1 4 C-0.67 2.68 -0.34 1.36 0 0 Z " fill="#171717" transform="translate(261,231)"/>
</svg>
